<?xml version="1.0" encoding="UTF-8" standalone="no"?>
<svg width="863px" height="301px" viewBox="0 0 863 301" version="1.1" xmlns="http://www.w3.org/2000/svg" xmlns:xlink="http://www.w3.org/1999/xlink" xmlns:sketch="http://www.bohemiancoding.com/sketch/ns">
    <!-- Generator: Sketch 3.4.4 (17249) - http://www.bohemiancoding.com/sketch -->
    <title>php7</title>
    <desc>Created with Sketch.</desc>
    <defs></defs>
    <g id="Page-1" stroke="none" stroke-width="1" fill="none" fill-rule="evenodd" sketch:type="MSPage">
        <g id="php7" sketch:type="MSLayerGroup" transform="translate(-1.000000, 0.000000)" fill="#6E7081">
            <path d="M146.16,63.68 C175.19,63.68 196.46,71.48 209.98,86.21 C223.49,100.94 228.37,121.11 224.63,146.61 C223.1,158.27 219.63,169.72 214.24,180.93 C208.85,192.14 201.21,202.27 191.32,211.28 C179.23,222.71 166.24,229.98 152.33,233.05 C138.42,236.13 123.95,237.67 108.93,237.67 L64.58,237.67 L52.36,300.67 L0.98,300.67 L47.11,63.67 L146.16,63.67 L146.16,63.68 Z M91.15,101.48 L71.85,200.41 C73.53,200.63 80.04,200.74 81.77,200.74 C105.38,200.96 125.78,200.91 140.68,194.31 C156.79,187.18 166.97,173.93 171.59,146.45 C175.35,123.37 170.32,110.93 157.2,105.84 C151.36,103.58 145.32,102.44 137.95,101.61 C129.06,100.61 117.85,101.36 107.05,101.47 C104.28,101.7 91.15,101.48 91.15,101.48 L91.15,101.48 Z" id="Shape" sketch:type="MSShapeGroup"></path>
            <path d="M322.68,0.68 L310.39,63.68 L356.22,63.68 C381.27,64.68 400.14,68.84 412.84,77.63 C425.54,86.43 429.61,103.19 425.05,127.81 L403.62,237.68 L351.88,237.68 L372.34,132.81 C374.48,121.82 373.54,114.01 369.52,109.39 C365.49,104.77 357.08,102.01 344.02,102.01 L303.08,101.43 L276.48,237.68 L225.48,237.68 L271.68,0.68 L322.68,0.68 L322.68,0.68 Z" id="Shape" sketch:type="MSShapeGroup"></path>
            <path d="M559.16,63.68 C588.19,63.68 609.46,71.48 622.98,86.21 C636.49,100.94 641.37,121.11 637.63,146.61 C636.1,158.27 632.63,169.72 627.24,180.93 C621.85,192.14 614.21,202.27 604.32,211.28 C592.23,222.71 579.24,229.98 565.33,233.05 C551.42,236.13 536.95,237.67 521.92,237.67 L477.57,237.67 L465.35,300.67 L413.98,300.67 L460.11,63.67 L559.16,63.67 L559.16,63.68 Z M504.15,101.48 L484.85,200.41 C486.53,200.63 493.04,200.74 494.77,200.74 C518.38,200.96 538.78,200.91 553.68,194.31 C569.79,187.18 579.97,173.93 584.59,146.45 C588.35,123.37 583.32,110.93 570.2,105.84 C564.36,103.58 558.32,102.44 550.95,101.61 C542.06,100.61 530.85,101.36 520.05,101.47 C517.28,101.7 504.15,101.48 504.15,101.48 L504.15,101.48 Z" id="Shape" sketch:type="MSShapeGroup"></path>
            <path d="M651.69,41.68 L651.73,0.68 L863.34,0.68 L863.34,41.71 L720.48,237.68 L656.48,237.68 L804.62,41.68 L651.69,41.68 L651.69,41.68 Z" id="Shape" sketch:type="MSShapeGroup"></path>
        </g>
    </g>
</svg>